<svg xmlns="http://www.w3.org/2000/svg" viewBox="0 0 24 24" id="Motorcycle"><path d="M5,13a3,3,0,1,0,3,3A3,3,0,0,0,5,13Zm0,4a1,1,0,1,1,1-1A1,1,0,0,1,5,17Zm11.5858-1.5858A2,2,0,0,1,15.1716,16H10.5a5.489,5.489,0,0,0-7.238-5.2139L3,10,2,7,9,9a4.38,4.38,0,0,1,3-1,5.2424,5.2424,0,0,1,2.75,1L11,6l3-1,6.18,5.2972a1,1,0,0,1,.0563,1.4663ZM22,16a2.9932,2.9932,0,0,1-5.6938,1.2975,3.4723,3.4723,0,0,0,1.34-.8229l.3738-.3738a.992.992,0,1,0,1.0805-1.08l1.5321-1.5321A2.9933,2.9933,0,0,1,22,16Z" fill="#3498db" class="color000000 svgShape"></path></svg>